<svg class="icon" style="width: 1em; height: 1em;vertical-align: middle;fill: currentColor;overflow: hidden;" viewBox="0 0 1024 1024" version="1.1" xmlns="http://www.w3.org/2000/svg" p-id="1607"><path d="M238.03586 170.535001c-47.958268 0-87.172385 38.969547-87.172385 87.172385l0 525.325493c0 47.959292 39.214117 86.927815 87.172385 86.927815l525.570063 0c47.959292 0 86.928838-38.968523 86.928838-86.927815L850.534761 437.808254l90.184999-87.172385 0 464.36612c0 80.18218-67.949578 145.132448-148.132782 145.132448L206.067774 960.134437c-80.183204 0-145.132448-64.950268-145.132448-145.132448L60.935326 234.728022c0-80.18218 64.949244-154.12117 145.132448-154.12117L670.432871 80.606853l-86.926792 89.929172L238.03586 170.536025zM559.524898 597.430718l-194.83443 55.203276 55.703673-193.591113L559.524898 597.430718zM579.016835 577.952084 439.628204 439.808818l306.244846-304.242236 139.387607 138.130987L579.016835 577.952084zM948.208315 211.249285l-41.715077 41.469484L767.107677 114.330932l41.714054-41.470507c15.490809-15.233959 39.714514-15.990183 53.958936-1.743714l87.173408 86.428442C964.198497 171.779342 963.442274 196.014302 948.208315 211.249285z" p-id="1608"></path></svg>